<svg width="512" height="512" viewBox="0 0 512 512" fill="none" xmlns="http://www.w3.org/2000/svg" role="img" aria-label="Faro VE">
  <defs>
    <linearGradient id="bg" x1="0" y1="0" x2="0" y2="1">
      <stop offset="0" stop-color="#0B4F6C"/>
      <stop offset="1" stop-color="#072c3c"/>
    </linearGradient>
    <radialGradient id="lampGlow" cx="50%" cy="50%" r="50%">
      <stop offset="0" stop-color="#FFF7D6" stop-opacity="0.95"/>
      <stop offset="50%" stop-color="#FFE39C" stop-opacity="0.38"/>
      <stop offset="100%" stop-color="#FFE39C" stop-opacity="0"/>
    </radialGradient>
    <linearGradient id="ray" x1="0" y1="0" x2="0" y2="1">
      <stop offset="0" stop-color="#FFF1C2" stop-opacity="0.5"/>
      <stop offset="1" stop-color="#FFF1C2" stop-opacity="0"/>
    </linearGradient>
  </defs>

  <!-- Fondo redondeado (maskable-safe: el faro vive dentro del 80% central) -->
  <rect width="512" height="512" rx="116" fill="url(#bg)"/>

  <!-- Glow cálido de la lámpara -->
  <circle cx="256" cy="158" r="104" fill="url(#lampGlow)"/>

  <!-- Dos haces simétricos, mínimos -->
  <path d="M256 158 L150 92 L182 140 Z" fill="url(#ray)"/>
  <path d="M256 158 L362 92 L330 140 Z" fill="url(#ray)"/>

  <!-- Lámpara (núcleo de luz) -->
  <circle cx="256" cy="158" r="21" fill="#FFE39C"/>
  <circle cx="256" cy="158" r="10" fill="#FFF7E0"/>

  <!-- Sala de la lámpara -->
  <path d="M210 180 H302 L294 206 H218 Z" fill="#ffffff"/>

  <!-- Torre cónica -->
  <path d="M218 206 H294 L312 392 H200 Z" fill="#ffffff"/>

  <!-- Banda de acento -->
  <path d="M214 300 H298 L303 330 H209 Z" fill="#52A9C9"/>

  <!-- Base -->
  <path d="M188 392 H324 L338 424 H174 Z" fill="#ffffff"/>

  <!-- Suelo -->
  <rect x="150" y="424" width="212" height="14" rx="7" fill="#ffffff"/>
</svg>
